<svg width="12" height="10" viewBox="0 0 12 10" fill="none" xmlns="http://www.w3.org/2000/svg">
<path d="M4.69196 9.11558L7.88419 5.92316L0.6845 5.92316C0.582544 5.92316 0.499892 5.84051 0.499892 5.73855L0.499892 4.26169C0.499892 4.15973 0.582544 4.07708 0.6845 4.07708L7.88419 4.07708L4.69196 0.884665C4.62015 0.812853 4.64433 0.754147 4.74587 0.754147L7.14576 0.754147C7.26266 0.760471 7.3739 0.806517 7.46107 0.884665L11.4458 4.8696C11.5179 4.94169 11.5179 5.05855 11.4458 5.13064L7.46107 9.11558C7.3739 9.19372 7.26266 9.23977 7.14576 9.24609L4.74587 9.24609C4.64433 9.24609 4.62015 9.18739 4.69196 9.11558Z" fill="#566AE5"/>
</svg>
