<svg width="26" height="26" viewBox="0 0 26 26" fill="none" xmlns="http://www.w3.org/2000/svg">
<path fill-rule="evenodd" clip-rule="evenodd" d="M25.5 0H6.5C6.22386 0 6 0.223858 6 0.5V11C6 11.2761 6.22386 11.5 6.5 11.5H25.5C25.7761 11.5 26 11.2761 26 11V0.5C26 0.223858 25.7761 0 25.5 0ZM25.5 14.5H0.5C0.223858 14.5 0 14.7239 0 15V25.5C0 25.7761 0.223858 26 0.5 26H25.5C25.7761 26 26 25.7761 26 25.5V15C26 14.7239 25.7761 14.5 25.5 14.5ZM6 22.5C6 22.7761 5.77614 23 5.5 23H3.5C3.22386 23 3 22.7761 3 22.5V18C3 17.7239 3.22386 17.5 3.5 17.5H5.5C5.77614 17.5 6 17.7239 6 18V22.5ZM11 23C11.2761 23 11.5 22.7761 11.5 22.5V18C11.5 17.7239 11.2761 17.5 11 17.5H9C8.72386 17.5 8.5 17.7239 8.5 18V22.5C8.5 22.7761 8.72386 23 9 23H11ZM17.5 22.5C17.5 22.7761 17.2761 23 17 23H15C14.7239 23 14.5 22.7761 14.5 22.5V18C14.5 17.7239 14.7239 17.5 15 17.5H17C17.2761 17.5 17.5 17.7239 17.5 18V22.5ZM22.5 23C22.7761 23 23 22.7761 23 22.5V18C23 17.7239 22.7761 17.5 22.5 17.5H20.5C20.2239 17.5 20 17.7239 20 18V22.5C20 22.7761 20.2239 23 20.5 23H22.5ZM11 8.5C11.2761 8.5 11.5 8.27614 11.5 8V3.5C11.5 3.22386 11.2761 3 11 3H9C8.72386 3 8.5 3.22386 8.5 3.5V8C8.5 8.27614 8.72386 8.5 9 8.5H11ZM17.5 8C17.5 8.27614 17.2761 8.5 17 8.5H15C14.7239 8.5 14.5 8.27614 14.5 8V3.5C14.5 3.22386 14.7239 3 15 3H17C17.2761 3 17.5 3.22386 17.5 3.5V8ZM22.5 8.5C22.7761 8.5 23 8.27614 23 8V3.5C23 3.22386 22.7761 3 22.5 3H20.5C20.2239 3 20 3.22386 20 3.5V8C20 8.27614 20.2239 8.5 20.5 8.5H22.5Z" fill="#39414D"/>
</svg>
