<svg width="26" height="26" viewBox="0 0 26 26" fill="none" xmlns="http://www.w3.org/2000/svg">
<path fill-rule="evenodd" clip-rule="evenodd" d="M22.543 12H25.5C25.7761 12 26 12.2239 26 12.5V25.5C26 25.7761 25.7761 26 25.5 26H0.5C0.223858 26 0 25.7761 0 25.5V12.5C0 12.2239 0.223858 12 0.5 12H3.457L11.116 5.62C11.3448 5.40629 11.4823 5.11257 11.5 4.8V0.5C11.5 0.223858 11.7239 0 12 0H14C14.2761 0 14.5 0.223858 14.5 0.5V4.8C14.5183 5.11169 14.6558 5.40441 14.884 5.6175L22.543 12ZM13.3839 8.2725C13.1582 8.09648 12.8417 8.09648 12.6159 8.2725L8.14295 12H17.8569L13.3839 8.2725Z" fill="#39414D"/>
</svg>
