<svg width="12" height="12" viewBox="0 0 12 12" fill="none" xmlns="http://www.w3.org/2000/svg">
<path fill-rule="evenodd" clip-rule="evenodd" d="M0.296479 9.93563C0.140269 10.0918 0.140269 10.3451 0.296479 10.5013L1.49856 11.7034C1.65477 11.8596 1.90803 11.8596 2.06424 11.7034L6.00345 7.76419L9.94271 11.7034C10.0989 11.8597 10.3522 11.8597 10.5084 11.7034L11.7105 10.5014C11.8667 10.3452 11.8667 10.0919 11.7105 9.93568L7.77121 5.99642L11.7104 2.05729C11.8666 1.90108 11.8666 1.64781 11.7104 1.4916L10.5083 0.289521C10.3521 0.133311 10.0988 0.133311 9.94258 0.28952L6.00345 4.22866L2.06437 0.289574C1.90816 0.133364 1.65489 0.133364 1.49868 0.289574L0.2966 1.49166C0.14039 1.64787 0.14039 1.90113 0.296599 2.05734L4.23568 5.99642L0.296479 9.93563Z" fill="#67768D"/>
</svg>
