<svg width="24" height="30" viewBox="0 0 24 30" fill="none" xmlns="http://www.w3.org/2000/svg">
<path fill-rule="evenodd" clip-rule="evenodd" d="M18.5 2.5C18.5 2.22386 18.2761 2 18 2H13.5V0.5C13.5 0.223858 13.2761 0 13 0H11C10.7239 0 10.5 0.223858 10.5 0.5V2H6C5.72386 2 5.5 2.22386 5.5 2.5V4H18.5V2.5ZM23 10.5H18.5V6.5H5.5V10.5H1C0.723858 10.5 0.5 10.7239 0.5 11V14.5H23.5V11C23.5 10.7239 23.2761 10.5 23 10.5ZM0.5 17H1H23.5V23.0295C23.4884 23.3575 23.417 23.6806 23.2895 23.983L20.7105 29.5465C20.5697 29.8119 20.3 29.984 20 30H4C3.7001 29.984 3.43065 29.8116 3.2905 29.546L0.7095 23.954C0.582717 23.6512 0.511742 23.328 0.5 23V17Z" fill="#39414D"/>
</svg>
