<svg version="1.1" xmlns="http://www.w3.org/2000/svg" xmlns:xlink="http://www.w3.org/1999/xlink" x="0px" y="0px"
	 viewBox="0 0 1053.1 232.8" style="enable-background:new 0 0 1053.1 232.8;" xml:space="preserve">

<path fill="#324354" d="M2625.3,1889.1v-146.5h47.8v140.5c0,9.9,2.2,12.3,12.3,12.3h4.1l5.6,38.8c-3.6,0.5-18.4,1.5-27.3,1.5
	C2641.5,1935.7,2625.3,1926.5,2625.3,1889.1z"/>
<path fill="#324354" d="M2991.2,1799.7l37.2-2.9l3.6,11.1c7.5-7,20.5-14,48.5-14c48.3,0,59.3,34,59.3,71.9c0,38.1-12.3,71.7-62.2,71.7
	c-22.2,0-32.6-5.1-38.6-10.6v48.3h-47.8V1799.7z M3091.3,1867.7c0-16.2-2.9-30.4-23.6-30.4c-22.2,0-28.7,11.3-28.7,30.4
	s4.8,29.4,28.7,29.4C3087.9,1897.1,3091.3,1883.8,3091.3,1867.7z"/>
<path fill="#324354" d="M3310.2,1799.7l37.2-2.9l4.8,14.5c6-8.2,22.7-15.2,42.5-15.9v46c-31.8,0.2-36.7,9.7-36.7,28.6v65.4h-47.8
	V1799.7z"/>
<path fill="#324354" d="M3408,1795.4h24.6l7.7-28.1l36.9-8v36h30.2v46h-30.2v39.9c0,9.4,1.5,14.2,16.4,14.2h13.8v39.8
	c-7.2,0.5-15.2,0.7-24.1,0.7c-40.3,0-53.6-12.8-53.6-47.5v-47.1H3408V1795.4z"/>
<rect x="3520.6" y="1895.4" fill="#FA5959" width="39.8" height="39.8"/>
<path fill="#324354" d="M2507.3,1797h26.1v-2.7c0-34.7,13-52.1,57.9-52.1c11.8,0,14,0.2,19.8,0.7v38.8h-13.3
	c-13.7,0-16.6,3.4-16.6,12.3v2.9h29.9v40.5h-29.9v97.7h-47.8v-97.7h-26.1L2507.3,1797L2507.3,1797z"/>
<path fill="#324354" d="M2799.1,1894c-7.9,4.6-12,5.7-27.7,5.7c-18.7,0-25.9-6.6-28.3-17.9h91.8c1.7-48.7-2.4-88-63.5-88
	c-61.4,0-74.3,33.8-74.3,71.5c0,38.6,12.9,72.6,74.3,72.6c24.2,0,39.5-4.5,55.7-15L2799.1,1894z M2769.9,1833
	c19.7,0,21.1,9.4,21.8,20.6h-49.2C2744.5,1840.4,2750.7,1833,2769.9,1833z"/>
<g>
	<polygon fill="#324354" points="2929.6,1935.3 2906.2,1901.8 2882.8,1935.3 2829.4,1935.3 2879.4,1864 2834,1799.7 2887.9,1799.7 
		2906.4,1825.9 2924.9,1799.7 2979.5,1799.7 2933.2,1863.7 2983.4,1935.3 	"/>
</g>
<path fill="#324354" d="M3149.7,1865.7c0-45.8,21-71.9,75-71.9s74.8,26.1,74.8,71.9s-20.7,72.1-74.8,72.1
	C3170.7,1937.9,3149.7,1911.6,3149.7,1865.7z M3251.5,1867.2c0-17.4-4.3-29.9-26.8-29.9c-22.4,0-26.8,12.5-26.8,29.9
	c0,17.1,4.3,29.9,26.8,29.9S3251.5,1884.3,3251.5,1867.2z"/>
<path fill="#FFFFFF" d="M118.3,147.1V0.6h47.8v140.5c0,9.9,2.2,12.3,12.3,12.3h4.1l5.6,38.8c-3.6,0.5-18.4,1.5-27.3,1.5
	C134.5,193.7,118.3,184.5,118.3,147.1z"/>
<path fill="#FFFFFF" d="M484.2,57.7l37.2-2.9l3.6,11.1c7.5-7,20.5-14,48.5-14c48.3,0,59.3,34,59.3,71.9c0,38.1-12.3,71.7-62.2,71.7
	c-22.2,0-32.6-5.1-38.6-10.6V233h-47.8V57.7z M584.3,125.7c0-16.2-2.9-30.4-23.6-30.4c-22.2,0-28.7,11.3-28.7,30.4
	s4.8,29.4,28.7,29.4C580.9,155.1,584.3,141.8,584.3,125.7z"/>
<path fill="#FFFFFF" d="M803.2,57.7l37.2-2.9l4.8,14.5c6-8.2,22.7-15.2,42.5-15.9v46c-31.8,0.2-36.7,9.7-36.7,28.6v65.4h-47.8V57.7z"/>
<path fill="#FFFFFF" d="M901,53.4h24.6l7.7-28.1l36.9-8v36h30.2v46h-30.2v39.9c0,9.4,1.5,14.2,16.4,14.2h13.8v39.8
	c-7.2,0.5-15.2,0.7-24.1,0.7c-40.3,0-53.6-12.8-53.6-47.5V99.3H901V53.4z"/>
<rect x="1013.6" y="153.4" fill="#FA5959" width="39.8" height="39.8"/>
<path fill="#FFFFFF" d="M0.3,55h26.1v-2.7c0-34.7,13-52.1,57.9-52.1c11.8,0,14,0.2,19.8,0.7v38.8H90.7C77,39.7,74.1,43.1,74.1,52v3H104
	v40.5H74.1v97.7H26.3V95.5h-26V55z"/>
<path fill="#FFFFFF" d="M292.1,152c-7.9,4.6-12,5.7-27.7,5.7c-18.7,0-25.9-6.6-28.3-17.9h91.8c1.7-48.7-2.4-88-63.5-88
	c-61.4,0-74.3,33.8-74.3,71.5c0,38.6,12.9,72.6,74.3,72.6c24.2,0,39.5-4.5,55.7-15L292.1,152z M262.9,91c19.7,0,21.1,9.4,21.8,20.6
	h-49.2C237.5,98.4,243.7,91,262.9,91z"/>
<g>
	<polygon fill="#FFFFFF" points="422.6,193.3 399.2,159.8 375.8,193.3 322.4,193.3 372.4,122 327,57.7 380.9,57.7 399.4,83.9 
		417.9,57.7 472.5,57.7 426.2,121.7 476.4,193.3 	"/>
</g>
<path fill="#FFFFFF" d="M642.7,123.7c0-45.8,21-71.9,75-71.9s74.8,26.1,74.8,71.9s-20.7,72.1-74.8,72.1
	C663.7,195.9,642.7,169.6,642.7,123.7z M744.5,125.2c0-17.4-4.3-29.9-26.8-29.9c-22.4,0-26.8,12.5-26.8,29.9
	c0,17.1,4.3,29.9,26.8,29.9C740.2,155.1,744.5,142.3,744.5,125.2z"/>
</svg>
